<svg width="58" height="58" viewBox="0 0 58 58" fill="none" xmlns="http://www.w3.org/2000/svg">
<path d="M41.4776 23.0163C41.1901 21.9077 40.3429 21.0347 39.2673 20.7384C37.3177 20.2 29.5 20.2 29.5 20.2C29.5 20.2 21.6823 20.2 19.7327 20.7384C18.6571 21.0347 17.8099 21.9077 17.5224 23.0163C17 25.0257 17 29.2181 17 29.2181C17 29.2181 17 33.4105 17.5224 35.4199C17.8099 36.5285 18.6571 37.3652 19.7327 37.6615C21.6823 38.2 29.5 38.2 29.5 38.2C29.5 38.2 37.3177 38.2 39.2673 37.6615C40.3429 37.3652 41.1901 36.5285 41.4776 35.4199C42 33.4105 42 29.2181 42 29.2181C42 29.2181 42 25.0257 41.4776 23.0163ZM26.9432 33.0245V25.4117L33.4772 29.2182L26.9432 33.0245Z" fill="#B7ABAC"/>
</svg>
