<svg width="22" height="24" viewBox="0 0 22 24" fill="none" xmlns="http://www.w3.org/2000/svg">
<path d="M11 24C12.7345 24 14.1414 22.657 14.1414 21H7.85865C7.85865 22.657 9.26557 24 11 24ZM21.5772 16.9823C20.6285 16.0092 18.8533 14.5453 18.8533 9.75C18.8533 6.10781 16.1779 3.19219 12.5705 2.47688V1.5C12.5705 0.671719 11.8673 0 11 0C10.1328 0 9.42959 0.671719 9.42959 1.5V2.47688C5.82218 3.19219 3.14682 6.10781 3.14682 9.75C3.14682 14.5453 1.3716 16.0092 0.422846 16.9823C0.128204 17.2847 -0.00242141 17.6461 3.39521e-05 18C0.00543574 18.7687 0.637445 19.5 1.57637 19.5H20.4237C21.3626 19.5 21.9951 18.7687 22 18C22.0025 17.6461 21.8719 17.2842 21.5772 16.9823Z" fill="white"/>
</svg>
