<svg width="58" height="58" viewBox="0 0 58 58" fill="none" xmlns="http://www.w3.org/2000/svg">
<path d="M28.802 24.4875C26.3048 24.4875 24.2906 26.5022 24.2906 29C24.2906 31.4977 26.3048 33.5124 28.802 33.5124C31.2991 33.5124 33.3134 31.4977 33.3134 29C33.3134 26.5022 31.2991 24.4875 28.802 24.4875ZM28.802 31.9336C27.1882 31.9336 25.869 30.618 25.869 29C25.869 27.3819 27.1843 26.0663 28.802 26.0663C30.4196 26.0663 31.735 27.3819 31.735 29C31.735 30.618 30.4157 31.9336 28.802 31.9336ZM34.5502 24.303C34.5502 24.8881 34.079 25.3555 33.4979 25.3555C32.9129 25.3555 32.4456 24.8842 32.4456 24.303C32.4456 23.7217 32.9168 23.2504 33.4979 23.2504C34.079 23.2504 34.5502 23.7217 34.5502 24.303ZM37.5382 25.3712C37.4714 23.9613 37.1494 22.7124 36.1168 21.6835C35.0881 20.6545 33.8395 20.3325 32.4299 20.2618C30.9772 20.1793 26.6228 20.1793 25.1701 20.2618C23.7644 20.3286 22.5158 20.6506 21.4832 21.6795C20.4506 22.7085 20.1325 23.9574 20.0618 25.3672C19.9794 26.8203 19.9794 31.1757 20.0618 32.6287C20.1286 34.0386 20.4506 35.2875 21.4832 36.3164C22.5158 37.3454 23.7605 37.6674 25.1701 37.7381C26.6228 37.8206 30.9772 37.8206 32.4299 37.7381C33.8395 37.6713 35.0881 37.3493 36.1168 36.3164C37.1455 35.2875 37.4675 34.0386 37.5382 32.6287C37.6206 31.1757 37.6206 26.8243 37.5382 25.3712ZM35.6613 34.1879C35.3551 34.9576 34.7622 35.5506 33.9887 35.8609C32.8304 36.3204 30.082 36.2143 28.802 36.2143C27.522 36.2143 24.7696 36.3164 23.6152 35.8609C22.8456 35.5545 22.2528 34.9615 21.9426 34.1879C21.4832 33.0293 21.5892 30.2802 21.5892 29C21.5892 27.7197 21.4871 24.9667 21.9426 23.812C22.2488 23.0423 22.8417 22.4493 23.6152 22.139C24.7735 21.6795 27.522 21.7856 28.802 21.7856C30.082 21.7856 32.8344 21.6835 33.9887 22.139C34.7583 22.4454 35.3512 23.0384 35.6613 23.812C36.1207 24.9706 36.0147 27.7197 36.0147 29C36.0147 30.2802 36.1207 33.0332 35.6613 34.1879Z" fill="#B7ABAC"/>
</svg>
